# Rhino

mtllib half of sphere.mtl
g object_1
usemtl diffuse_0
v 1 0 0
v 0.91899228096008301 0.39427557587623596 0
v 0.70008993148803711 0.71405470371246338 0
v 0.37811726331710815 0.92575770616531372 0
v 0 1 0
v 0.84454679489135742 0.39427557587623596 -0.36233618855476379
v 0.64337724447250366 0.71405470371246338 -0.27602836489677429
v 0.34748682379722595 0.92575770616531372 -0.14908239245414734
v 0 1 0
v 0.64337724447250366 0.39427557587623596 -0.65621072053909302
v 0.49012589454650879 0.71405470371246338 -0.49990248680114746
v 0.26471608877182007 0.92575770616531372 -0.26999640464782715
v 0 1 0
v 0.34748682379722595 0.39427557587623596 -0.85076415538787842
v 0.26471608877182007 0.71405470371246338 -0.6481136679649353
v 0.1429726630449295 0.92575770616531372 -0.35004496574401855
v 0 1 0
v 0 0.39427557587623596 -0.91899228096008301
v 0 0.71405470371246338 -0.70008993148803711
v 0 0.92575770616531372 -0.37811726331710815
v 0 1 0
v -0.36233618855476379 0.39427557587623596 -0.84454679489135742
v -0.27602836489677429 0.71405470371246338 -0.64337724447250366
v -0.14908239245414734 0.92575770616531372 -0.34748682379722595
v 0 1 0
v -0.65621072053909302 0.39427557587623596 -0.64337724447250366
v -0.49990248680114746 0.71405470371246338 -0.49012589454650879
v -0.26999640464782715 0.92575770616531372 -0.26471608877182007
v 0 1 0
v -0.85076415538787842 0.39427557587623596 -0.34748682379722595
v -0.6481136679649353 0.71405470371246338 -0.26471608877182007
v -0.35004496574401855 0.92575770616531372 -0.1429726630449295
v 0 1 0
v -1 0 0
v -0.91899228096008301 0.39427557587623596 0
v -0.70008993148803711 0.71405470371246338 0
v -0.37811726331710815 0.92575770616531372 0
v 0 1 0
v -0.84454679489135742 0.39427557587623596 0.36233618855476379
v -0.64337724447250366 0.71405470371246338 0.27602836489677429
v -0.34748682379722595 0.92575770616531372 0.14908239245414734
v 0 1 0
v -0.64337724447250366 0.39427557587623596 0.65621072053909302
v -0.49012589454650879 0.71405470371246338 0.49990248680114746
v -0.26471608877182007 0.92575770616531372 0.26999640464782715
v 0 1 0
v -0.34748682379722595 0.39427557587623596 0.85076415538787842
v -0.26471608877182007 0.71405470371246338 0.6481136679649353
v -0.1429726630449295 0.92575770616531372 0.35004496574401855
v 0 1 0
v 0 0.39427557587623596 0.91899228096008301
v 0 0.71405470371246338 0.70008993148803711
v 0 0.92575770616531372 0.37811726331710815
v 0 1 0
v 0.36233618855476379 0.39427557587623596 0.84454679489135742
v 0.27602836489677429 0.71405470371246338 0.64337724447250366
v 0.14908239245414734 0.92575770616531372 0.34748682379722595
v 0 1 0
v 0.65621072053909302 0.39427557587623596 0.64337724447250366
v 0.49990248680114746 0.71405470371246338 0.49012589454650879
v 0.26999640464782715 0.92575770616531372 0.26471608877182007
v 0 1 0
v 0.85076415538787842 0.39427557587623596 0.34748682379722595
v 0.6481136679649353 0.71405470371246338 0.26471608877182007
v 0.35004496574401855 0.92575770616531372 0.1429726630449295
v 0 1 0
v 1 0 0
v 0.91899228096008301 0.39427557587623596 0
v 0.70008993148803711 0.71405470371246338 0
v 0.37811726331710815 0.92575770616531372 0
v 0 1 0
v 0.95949298143386841 0 -0.28173255920410156
v 0.84125351905822754 0 -0.54064083099365234
v 0.6548607349395752 0 -0.75574958324432373
v 0.41541501879692078 0 -0.90963196754455566
v 0.14231483638286591 0 -0.98982143402099609
v -0.14231483638286591 0 -0.98982143402099609
v -0.41541501879692078 0 -0.90963196754455566
v -0.6548607349395752 0 -0.75574958324432373
v -0.84125351905822754 0 -0.54064083099365234
v -0.95949298143386841 0 -0.28173255920410156
v -0.95949298143386841 0 0.28173255920410156
v -0.84125351905822754 0 0.54064083099365234
v -0.6548607349395752 0 0.75574958324432373
v -0.41541501879692078 0 0.90963196754455566
v -0.14231483638286591 0 0.98982143402099609
v 0.14231483638286591 0 0.98982143402099609
v 0.41541501879692078 0 0.90963196754455566
v 0.6548607349395752 0 0.75574958324432373
v 0.84125351905822754 0 0.54064083099365234
v 0.95949298143386841 0 0.28173255920410156
v 1 0 0
v 0.95949298143386841 0 0.28173255920410156
v 0.84125351905822754 0 0.54064083099365234
v 0.6548607349395752 0 0.75574958324432373
v 0.41541501879692078 0 0.90963196754455566
v 0.14231483638286591 0 0.98982143402099609
v -0.14231483638286591 0 0.98982143402099609
v -0.41541501879692078 0 0.90963196754455566
v -0.6548607349395752 0 0.75574958324432373
v -0.84125351905822754 0 0.54064083099365234
v -0.95949298143386841 0 0.28173255920410156
v -1 0 0
v -0.95949298143386841 0 -0.28173255920410156
v -0.84125351905822754 0 -0.54064083099365234
v -0.6548607349395752 0 -0.75574958324432373
v -0.41541501879692078 0 -0.90963196754455566
v -0.14231483638286591 0 -0.98982143402099609
v 0.14231483638286591 0 -0.98982143402099609
v 0.41541501879692078 0 -0.90963196754455566
v 0.6548607349395752 0 -0.75574958324432373
v 0.84125351905822754 0 -0.54064083099365234
v 0.95949298143386841 0 -0.28173255920410156
v 0 0 0
v 0.5 0 0
v 0 0 -0.5
v 0.5 0 -0.5
v 0 0 0.5
v 0.5 0 0.5
v -0.5 0 0
v -0.5 0 0.5
v -0.5 0 -0.5
vt 0.5628741979598999 0
vt 0.49893653392791748 0
vt 0.43741044402122498 0
vt 0.3762364387512207 0
vt 0.31506243348121643 0
vt 0.49893653392791748 0.06440773606300354
vt 0.43741044402122498 0.06440773606300354
vt 0.3762364387512207 0.06440773606300354
vt 0.31506243348121643 0.06440773606300354
vt 0.49893653392791748 0.12638621032238007
vt 0.43741044402122498 0.12638621032238007
vt 0.3762364387512207 0.12638621032238007
vt 0.31506243348121643 0.12638621032238007
vt 0.49893653392791748 0.18801000714302063
vt 0.43741044402122498 0.18801000714302063
vt 0.3762364387512207 0.18801000714302063
vt 0.31506243348121643 0.18801000714302063
vt 0.49893653392791748 0.2496337890625
vt 0.43741044402122498 0.2496337890625
vt 0.3762364387512207 0.2496337890625
vt 0.31506243348121643 0.2496337890625
vt 0.49893653392791748 0.31404155492782593
vt 0.43741044402122498 0.31404155492782593
vt 0.3762364387512207 0.31404155492782593
vt 0.31506243348121643 0.31404155492782593
vt 0.49893653392791748 0.37602001428604126
vt 0.43741044402122498 0.37602001428604126
vt 0.3762364387512207 0.37602001428604126
vt 0.31506243348121643 0.37602001428604126
vt 0.49893653392791748 0.43764376640319824
vt 0.43741044402122498 0.43764376640319824
vt 0.3762364387512207 0.43764376640319824
vt 0.31506243348121643 0.43764376640319824
vt 0.5628741979598999 0.499267578125
vt 0.49893653392791748 0.499267578125
vt 0.43741044402122498 0.499267578125
vt 0.3762364387512207 0.499267578125
vt 0.31506243348121643 0.499267578125
vt 0.49893653392791748 0.56367534399032593
vt 0.43741044402122498 0.56367534399032593
vt 0.3762364387512207 0.56367534399032593
vt 0.31506243348121643 0.56367534399032593
vt 0.49893653392791748 0.62565374374389648
vt 0.43741044402122498 0.62565374374389648
vt 0.3762364387512207 0.62565374374389648
vt 0.31506243348121643 0.62565374374389648
vt 0.49893653392791748 0.68727761507034302
vt 0.43741044402122498 0.68727761507034302
vt 0.3762364387512207 0.68727761507034302
vt 0.31506243348121643 0.68727761507034302
vt 0.49893653392791748 0.7489013671875
vt 0.43741044402122498 0.7489013671875
vt 0.3762364387512207 0.7489013671875
vt 0.31506243348121643 0.7489013671875
vt 0.49893653392791748 0.81330913305282593
vt 0.43741044402122498 0.81330913305282593
vt 0.3762364387512207 0.81330913305282593
vt 0.31506243348121643 0.81330913305282593
vt 0.49893653392791748 0.87528753280639648
vt 0.43741044402122498 0.87528753280639648
vt 0.3762364387512207 0.87528753280639648
vt 0.31506243348121643 0.87528753280639648
vt 0.49893653392791748 0.93691140413284302
vt 0.43741044402122498 0.93691140413284302
vt 0.3762364387512207 0.93691140413284302
vt 0.31506243348121643 0.93691140413284302
vt 0.5628741979598999 0.99853515625
vt 0.49893653392791748 0.99853515625
vt 0.43741044402122498 0.99853515625
vt 0.3762364387512207 0.99853515625
vt 0.31506243348121643 0.99853515625
vt 0.5628741979598999 0.045387964695692062
vt 0.5628741979598999 0.090775929391384125
vt 0.5628741979598999 0.13616389036178589
vt 0.5628741979598999 0.18155185878276825
vt 0.5628741979598999 0.22693981230258942
vt 0.5628741979598999 0.27232778072357178
vt 0.5628741979598999 0.31771573424339294
vt 0.5628741979598999 0.3631037175655365
vt 0.5628741979598999 0.40849164128303528
vt 0.5628741979598999 0.45387962460517883
vt 0.5628741979598999 0.54465556144714355
vt 0.5628741979598999 0.59004348516464233
vt 0.5628741979598999 0.63543146848678589
vt 0.5628741979598999 0.68081945180892944
vt 0.5628741979598999 0.726207435131073
vt 0.5628741979598999 0.771595299243927
vt 0.5628741979598999 0.81698328256607056
vt 0.5628741979598999 0.86237126588821411
vt 0.5628741979598999 0.90775924921035767
vt 0.5628741979598999 0.95314717292785645
vt 0.15679879486560822 0.31830227375030518
vt 0.11216919869184494 0.31185552477836609
vt 0.071155242621898651 0.29303759336471558
vt 0.037079602479934692 0.2633729875087738
vt 0.01270290557295084 0.22526492178440094
vt 0 0.18180070817470551
vt 0 0.13650156557559967
vt 0.01270290557295084 0.093037374317646027
vt 0.037079602479934692 0.054929308593273163
vt 0.071155242621898651 0.025264682248234749
vt 0.11216919869184494 0.0064467396587133408
vt 0.15679879486560822 0
vt 0.20142838358879089 0.0064467396587133408
vt 0.24244235455989838 0.025264682248234749
vt 0.27651798725128174 0.054929308593273163
vt 0.30089467763900757 0.093037374317646027
vt 0.31359758973121643 0.13650156557559967
vt 0.31359758973121643 0.18180070817470551
vt 0.30089467763900757 0.22526492178440094
vt 0.27651798725128174 0.2633729875087738
vt 0.24244235455989838 0.29303759336471558
vt 0.20142838358879089 0.31185552477836609
vt 0.15679879486560822 0.15915113687515259
vt 0.15679879486560822 0.23872672021389008
vt 0.23600438237190247 0.15915113687515259
vt 0.23600438237190247 0.23872672021389008
vt 0.077593199908733368 0.15915113687515259
vt 0.077593199908733368 0.23872672021389008
vt 0.15679879486560822 0.079575568437576294
vt 0.077593199908733368 0.079575568437576294
vt 0.23600438237190247 0.079575568437576294
vn 1 0 0
vn 0.91899228096008301 0.39427557587623596 0
vn 0.70008993148803711 0.71405470371246338 0
vn 0.37811726331710815 0.92575770616531372 0
vn 0 1 0
vn 0.84454679489135742 0.39427557587623596 -0.36233618855476379
vn 0.64337724447250366 0.71405470371246338 -0.27602836489677429
vn 0.34748682379722595 0.92575770616531372 -0.14908239245414734
vn 0 1 0
vn 0.64337724447250366 0.39427557587623596 -0.65621072053909302
vn 0.49012589454650879 0.71405470371246338 -0.49990248680114746
vn 0.26471608877182007 0.92575770616531372 -0.26999640464782715
vn 0 1 0
vn 0.34748682379722595 0.39427557587623596 -0.85076415538787842
vn 0.26471608877182007 0.71405470371246338 -0.6481136679649353
vn 0.1429726630449295 0.92575770616531372 -0.35004496574401855
vn 0 1 0
vn 0 0.39427557587623596 -0.91899228096008301
vn 0 0.71405470371246338 -0.70008993148803711
vn 0 0.92575770616531372 -0.37811726331710815
vn 0 1 0
vn -0.36233618855476379 0.39427557587623596 -0.84454679489135742
vn -0.27602836489677429 0.71405470371246338 -0.64337724447250366
vn -0.14908239245414734 0.92575770616531372 -0.34748682379722595
vn 0 1 0
vn -0.65621072053909302 0.39427557587623596 -0.64337724447250366
vn -0.49990248680114746 0.71405470371246338 -0.49012589454650879
vn -0.26999640464782715 0.92575770616531372 -0.26471608877182007
vn 0 1 0
vn -0.85076415538787842 0.39427557587623596 -0.34748682379722595
vn -0.6481136679649353 0.71405470371246338 -0.26471608877182007
vn -0.35004496574401855 0.92575770616531372 -0.1429726630449295
vn 0 1 0
vn -1 0 0
vn -0.91899228096008301 0.39427557587623596 0
vn -0.70008993148803711 0.71405470371246338 0
vn -0.37811726331710815 0.92575770616531372 0
vn 0 1 0
vn -0.84454679489135742 0.39427557587623596 0.36233618855476379
vn -0.64337724447250366 0.71405470371246338 0.27602836489677429
vn -0.34748682379722595 0.92575770616531372 0.14908239245414734
vn 0 1 0
vn -0.64337724447250366 0.39427557587623596 0.65621072053909302
vn -0.49012589454650879 0.71405470371246338 0.49990248680114746
vn -0.26471608877182007 0.92575770616531372 0.26999640464782715
vn 0 1 0
vn -0.34748682379722595 0.39427557587623596 0.85076415538787842
vn -0.26471608877182007 0.71405470371246338 0.6481136679649353
vn -0.1429726630449295 0.92575770616531372 0.35004496574401855
vn 0 1 0
vn 0 0.39427557587623596 0.91899228096008301
vn 0 0.71405470371246338 0.70008993148803711
vn 0 0.92575770616531372 0.37811726331710815
vn 0 1 0
vn 0.36233618855476379 0.39427557587623596 0.84454679489135742
vn 0.27602836489677429 0.71405470371246338 0.64337724447250366
vn 0.14908239245414734 0.92575770616531372 0.34748682379722595
vn 0 1 0
vn 0.65621072053909302 0.39427557587623596 0.64337724447250366
vn 0.49990248680114746 0.71405470371246338 0.49012589454650879
vn 0.26999640464782715 0.92575770616531372 0.26471608877182007
vn 0 1 0
vn 0.85076415538787842 0.39427557587623596 0.34748682379722595
vn 0.6481136679649353 0.71405470371246338 0.26471608877182007
vn 0.35004496574401855 0.92575770616531372 0.1429726630449295
vn 0 1 0
vn 1 0 0
vn 0.91899228096008301 0.39427557587623596 0
vn 0.70008993148803711 0.71405470371246338 0
vn 0.37811726331710815 0.92575770616531372 0
vn 0 1 0
vn 0.95949298143386841 0 -0.28173255920410156
vn 0.84125351905822754 0 -0.54064083099365234
vn 0.6548607349395752 0 -0.75574958324432373
vn 0.41541501879692078 0 -0.90963196754455566
vn 0.14231483638286591 0 -0.98982143402099609
vn -0.14231483638286591 0 -0.98982143402099609
vn -0.41541501879692078 0 -0.90963196754455566
vn -0.6548607349395752 0 -0.75574958324432373
vn -0.84125351905822754 0 -0.54064083099365234
vn -0.95949298143386841 0 -0.28173255920410156
vn -0.95949298143386841 0 0.28173255920410156
vn -0.84125351905822754 0 0.54064083099365234
vn -0.6548607349395752 0 0.75574958324432373
vn -0.41541501879692078 0 0.90963196754455566
vn -0.14231483638286591 0 0.98982143402099609
vn 0.14231483638286591 0 0.98982143402099609
vn 0.41541501879692078 0 0.90963196754455566
vn 0.6548607349395752 0 0.75574958324432373
vn 0.84125351905822754 0 0.54064083099365234
vn 0.95949298143386841 0 0.28173255920410156
vn 0 -1 0
vn 0 -1 0
vn 0 -1 0
vn 0 -1 0
vn 0 -1 0
vn 0 -1 0
vn 0 -1 0
vn 0 -1 0
vn 0 -1 0
vn 0 -1 0
vn 0 -1 0
vn 0 -1 0
vn 0 -1 0
vn 0 -1 0
vn 0 -1 0
vn 0 -1 0
vn 0 -1 0
vn 0 -1 0
vn 0 -1 0
vn 0 -1 0
vn 0 -1 0
vn 0 -1 0
vn 0 -1 0
vn 0 -1 0
vn 0 -1 0
vn 0 -1 0
vn 0 -1 0
vn 0 -1 0
vn 0 -1 0
vn 0 -1 0
vn 0 -1 0
f 7/7/7 3/3/3 2/2/2 6/6/6
f 8/8/8 4/4/4 3/3/3 7/7/7
f 9/9/9 4/4/4 8/8/8
f 11/11/11 7/7/7 6/6/6 10/10/10
f 12/12/12 8/8/8 7/7/7 11/11/11
f 13/13/13 8/8/8 12/12/12
f 15/15/15 11/11/11 10/10/10 14/14/14
f 16/16/16 12/12/12 11/11/11 15/15/15
f 17/17/17 12/12/12 16/16/16
f 19/19/19 15/15/15 14/14/14 18/18/18
f 20/20/20 16/16/16 15/15/15 19/19/19
f 21/21/21 16/16/16 20/20/20
f 23/23/23 19/19/19 18/18/18 22/22/22
f 24/24/24 20/20/20 19/19/19 23/23/23
f 25/25/25 20/20/20 24/24/24
f 27/27/27 23/23/23 22/22/22 26/26/26
f 28/28/28 24/24/24 23/23/23 27/27/27
f 29/29/29 24/24/24 28/28/28
f 31/31/31 27/27/27 26/26/26 30/30/30
f 32/32/32 28/28/28 27/27/27 31/31/31
f 33/33/33 28/28/28 32/32/32
f 36/36/36 31/31/31 30/30/30 35/35/35
f 37/37/37 32/32/32 31/31/31 36/36/36
f 38/38/38 32/32/32 37/37/37
f 40/40/40 36/36/36 35/35/35 39/39/39
f 41/41/41 37/37/37 36/36/36 40/40/40
f 42/42/42 37/37/37 41/41/41
f 44/44/44 40/40/40 39/39/39 43/43/43
f 45/45/45 41/41/41 40/40/40 44/44/44
f 46/46/46 41/41/41 45/45/45
f 48/48/48 44/44/44 43/43/43 47/47/47
f 49/49/49 45/45/45 44/44/44 48/48/48
f 50/50/50 45/45/45 49/49/49
f 52/52/52 48/48/48 47/47/47 51/51/51
f 53/53/53 49/49/49 48/48/48 52/52/52
f 54/54/54 49/49/49 53/53/53
f 56/56/56 52/52/52 51/51/51 55/55/55
f 57/57/57 53/53/53 52/52/52 56/56/56
f 58/58/58 53/53/53 57/57/57
f 60/60/60 56/56/56 55/55/55 59/59/59
f 61/61/61 57/57/57 56/56/56 60/60/60
f 62/62/62 57/57/57 61/61/61
f 64/64/64 60/60/60 59/59/59 63/63/63
f 65/65/65 61/61/61 60/60/60 64/64/64
f 66/66/66 61/61/61 65/65/65
f 69/69/69 64/64/64 63/63/63 68/68/68
f 70/70/70 65/65/65 64/64/64 69/69/69
f 71/71/71 65/65/65 70/70/70
f 1/1/1 72/72/72 6/6/6 2/2/2
f 10/10/10 73/73/73 74/74/74
f 74/74/74 75/75/75 14/14/14 10/10/10
f 6/6/6 72/72/72 73/73/73
f 18/18/18 76/76/76 77/77/77
f 78/78/78 79/79/79 26/26/26 22/22/22
f 26/26/26 79/79/79 80/80/80
f 77/77/77 78/78/78 22/22/22 18/18/18
f 75/75/75 76/76/76 18/18/18 14/14/14
f 6/6/6 73/73/73 10/10/10
f 35/35/35 30/30/30 81/81/81 34/34/34
f 30/30/30 26/26/26 80/80/80
f 30/30/30 80/80/80 81/81/81
f 39/39/39 82/82/82 83/83/83
f 84/84/84 85/85/85 47/47/47 43/43/43
f 85/85/85 86/86/86 51/51/51 47/47/47
f 43/43/43 83/83/83 84/84/84
f 87/87/87 88/88/88 55/55/55 51/51/51
f 59/59/59 89/89/89 90/90/90
f 63/63/63 90/90/90 91/91/91
f 88/88/88 89/89/89 59/59/59 55/55/55
f 51/51/51 86/86/86 87/87/87
f 39/39/39 35/35/35 34/34/34 82/82/82
f 39/39/39 83/83/83 43/43/43
f 63/63/63 59/59/59 90/90/90
f 68/68/68 63/63/63 91/91/91 67/67/67
f 117/117/117 115/115/115 114/114/114 116/116/116
f 115/115/115 119/119/119 118/118/118 114/114/114
f 114/114/114 118/118/118 121/121/121 120/120/120
f 116/116/116 114/114/114 120/120/120 122/122/122
f 100/100/100 121/121/121 99/99/99
f 101/101/101 121/121/121 100/100/100
f 120/120/120 102/102/102 103/103/103
f 118/118/118 99/99/99 121/121/121
f 102/102/102 120/120/120 121/121/121
f 120/120/120 103/103/103 104/104/104
f 101/101/101 102/102/102 121/121/121
f 118/118/118 96/96/96 97/97/97
f 96/96/96 119/119/119 95/95/95
f 98/98/98 118/118/118 97/97/97
f 95/95/95 119/119/119 94/94/94
f 119/119/119 93/93/93 94/94/94
f 93/93/93 119/119/119 115/115/115
f 118/118/118 119/119/119 96/96/96
f 118/118/118 98/98/98 99/99/99
f 105/105/105 122/122/122 104/104/104
f 107/107/107 116/116/116 122/122/122
f 106/106/106 107/107/107 122/122/122
f 107/107/107 108/108/108 116/116/116
f 105/105/105 106/106/106 122/122/122
f 109/109/109 116/116/116 108/108/108
f 113/113/113 115/115/115 117/117/117
f 115/115/115 113/113/113 92/92/92
f 113/113/113 117/117/117 112/112/112
f 93/93/93 115/115/115 92/92/92
f 110/110/110 111/111/111 117/117/117
f 111/111/111 112/112/112 117/117/117
f 110/110/110 117/117/117 116/116/116
f 116/116/116 109/109/109 110/110/110
f 104/104/104 122/122/122 120/120/120
